<?xml version="1.0" encoding="utf-8" standalone="no"?>
<!DOCTYPE svg PUBLIC "-//W3C//DTD SVG 1.1//EN"
  "http://www.w3.org/Graphics/SVG/1.1/DTD/svg11.dtd">
<!-- Created with matplotlib (https://matplotlib.org/) -->
<svg height="342.72pt" version="1.1" viewBox="0 0 460.8 342.72" width="460.8pt" xmlns="http://www.w3.org/2000/svg" xmlns:xlink="http://www.w3.org/1999/xlink">
 <defs>
  <style type="text/css">
*{stroke-linecap:butt;stroke-linejoin:round;}
  </style>
 </defs>
 <g id="figure_1">
  <g id="patch_1">
   <path d="M 0 342.72 
L 460.8 342.72 
L 460.8 0 
L 0 0 
z
" style="fill:#ffffff;"/>
  </g>
  <g id="axes_1">
   <g id="patch_2">
    <path d="M 57.6 305.0208 
L 414.72 305.0208 
L 414.72 41.1264 
L 57.6 41.1264 
z
" style="fill:#ffffff;"/>
   </g>
   <g id="matplotlib.axis_1">
    <g id="xtick_1">
     <g id="line2d_1">
      <defs>
       <path d="M 0 0 
L 0 3.5 
" id="m6d485a0749" style="stroke:#000000;stroke-width:0.8;"/>
      </defs>
      <g>
       <use style="stroke:#000000;stroke-width:0.8;" x="109.341818" xlink:href="#m6d485a0749" y="305.0208"/>
      </g>
     </g>
     <g id="text_1">
      <!-- −4 -->
      <defs>
       <path d="M 10.59375 35.5 
L 73.1875 35.5 
L 73.1875 27.203125 
L 10.59375 27.203125 
z
" id="DejaVuSans-8722"/>
       <path d="M 37.796875 64.3125 
L 12.890625 25.390625 
L 37.796875 25.390625 
z
M 35.203125 72.90625 
L 47.609375 72.90625 
L 47.609375 25.390625 
L 58.015625 25.390625 
L 58.015625 17.1875 
L 47.609375 17.1875 
L 47.609375 0 
L 37.796875 0 
L 37.796875 17.1875 
L 4.890625 17.1875 
L 4.890625 26.703125 
z
" id="DejaVuSans-52"/>
      </defs>
      <g transform="translate(101.970724 319.619237)scale(0.1 -0.1)">
       <use xlink:href="#DejaVuSans-8722"/>
       <use x="83.789062" xlink:href="#DejaVuSans-52"/>
      </g>
     </g>
    </g>
    <g id="xtick_2">
     <g id="line2d_2">
      <g>
       <use style="stroke:#000000;stroke-width:0.8;" x="172.750909" xlink:href="#m6d485a0749" y="305.0208"/>
      </g>
     </g>
     <g id="text_2">
      <!-- −2 -->
      <defs>
       <path d="M 19.1875 8.296875 
L 53.609375 8.296875 
L 53.609375 0 
L 7.328125 0 
L 7.328125 8.296875 
Q 12.9375 14.109375 22.625 23.890625 
Q 32.328125 33.6875 34.8125 36.53125 
Q 39.546875 41.84375 41.421875 45.53125 
Q 43.3125 49.21875 43.3125 52.78125 
Q 43.3125 58.59375 39.234375 62.25 
Q 35.15625 65.921875 28.609375 65.921875 
Q 23.96875 65.921875 18.8125 64.3125 
Q 13.671875 62.703125 7.8125 59.421875 
L 7.8125 69.390625 
Q 13.765625 71.78125 18.9375 73 
Q 24.125 74.21875 28.421875 74.21875 
Q 39.75 74.21875 46.484375 68.546875 
Q 53.21875 62.890625 53.21875 53.421875 
Q 53.21875 48.921875 51.53125 44.890625 
Q 49.859375 40.875 45.40625 35.40625 
Q 44.1875 33.984375 37.640625 27.21875 
Q 31.109375 20.453125 19.1875 8.296875 
z
" id="DejaVuSans-50"/>
      </defs>
      <g transform="translate(165.379815 319.619237)scale(0.1 -0.1)">
       <use xlink:href="#DejaVuSans-8722"/>
       <use x="83.789062" xlink:href="#DejaVuSans-50"/>
      </g>
     </g>
    </g>
    <g id="xtick_3">
     <g id="line2d_3">
      <g>
       <use style="stroke:#000000;stroke-width:0.8;" x="236.16" xlink:href="#m6d485a0749" y="305.0208"/>
      </g>
     </g>
     <g id="text_3">
      <!-- 0 -->
      <defs>
       <path d="M 31.78125 66.40625 
Q 24.171875 66.40625 20.328125 58.90625 
Q 16.5 51.421875 16.5 36.375 
Q 16.5 21.390625 20.328125 13.890625 
Q 24.171875 6.390625 31.78125 6.390625 
Q 39.453125 6.390625 43.28125 13.890625 
Q 47.125 21.390625 47.125 36.375 
Q 47.125 51.421875 43.28125 58.90625 
Q 39.453125 66.40625 31.78125 66.40625 
z
M 31.78125 74.21875 
Q 44.046875 74.21875 50.515625 64.515625 
Q 56.984375 54.828125 56.984375 36.375 
Q 56.984375 17.96875 50.515625 8.265625 
Q 44.046875 -1.421875 31.78125 -1.421875 
Q 19.53125 -1.421875 13.0625 8.265625 
Q 6.59375 17.96875 6.59375 36.375 
Q 6.59375 54.828125 13.0625 64.515625 
Q 19.53125 74.21875 31.78125 74.21875 
z
" id="DejaVuSans-48"/>
      </defs>
      <g transform="translate(232.97875 319.619237)scale(0.1 -0.1)">
       <use xlink:href="#DejaVuSans-48"/>
      </g>
     </g>
    </g>
    <g id="xtick_4">
     <g id="line2d_4">
      <g>
       <use style="stroke:#000000;stroke-width:0.8;" x="299.569091" xlink:href="#m6d485a0749" y="305.0208"/>
      </g>
     </g>
     <g id="text_4">
      <!-- 2 -->
      <g transform="translate(296.387841 319.619237)scale(0.1 -0.1)">
       <use xlink:href="#DejaVuSans-50"/>
      </g>
     </g>
    </g>
    <g id="xtick_5">
     <g id="line2d_5">
      <g>
       <use style="stroke:#000000;stroke-width:0.8;" x="362.978182" xlink:href="#m6d485a0749" y="305.0208"/>
      </g>
     </g>
     <g id="text_5">
      <!-- 4 -->
      <g transform="translate(359.796932 319.619237)scale(0.1 -0.1)">
       <use xlink:href="#DejaVuSans-52"/>
      </g>
     </g>
    </g>
    <g id="text_6">
     <!-- x -->
     <defs>
      <path d="M 54.890625 54.6875 
L 35.109375 28.078125 
L 55.90625 0 
L 45.3125 0 
L 29.390625 21.484375 
L 13.484375 0 
L 2.875 0 
L 24.125 28.609375 
L 4.6875 54.6875 
L 15.28125 54.6875 
L 29.78125 35.203125 
L 44.28125 54.6875 
z
" id="DejaVuSans-120"/>
     </defs>
     <g transform="translate(233.200625 333.297362)scale(0.1 -0.1)">
      <use xlink:href="#DejaVuSans-120"/>
     </g>
    </g>
   </g>
   <g id="matplotlib.axis_2">
    <g id="ytick_1">
     <g id="line2d_6">
      <defs>
       <path d="M 0 0 
L -3.5 0 
" id="m4efe108806" style="stroke:#000000;stroke-width:0.8;"/>
      </defs>
      <g>
       <use style="stroke:#000000;stroke-width:0.8;" x="57.6" xlink:href="#m4efe108806" y="293.149795"/>
      </g>
     </g>
     <g id="text_7">
      <!-- 0 -->
      <g transform="translate(44.2375 296.949014)scale(0.1 -0.1)">
       <use xlink:href="#DejaVuSans-48"/>
      </g>
     </g>
    </g>
    <g id="ytick_2">
     <g id="line2d_7">
      <g>
       <use style="stroke:#000000;stroke-width:0.8;" x="57.6" xlink:href="#m4efe108806" y="263.408435"/>
      </g>
     </g>
     <g id="text_8">
      <!-- 5 -->
      <defs>
       <path d="M 10.796875 72.90625 
L 49.515625 72.90625 
L 49.515625 64.59375 
L 19.828125 64.59375 
L 19.828125 46.734375 
Q 21.96875 47.46875 24.109375 47.828125 
Q 26.265625 48.1875 28.421875 48.1875 
Q 40.625 48.1875 47.75 41.5 
Q 54.890625 34.8125 54.890625 23.390625 
Q 54.890625 11.625 47.5625 5.09375 
Q 40.234375 -1.421875 26.90625 -1.421875 
Q 22.3125 -1.421875 17.546875 -0.640625 
Q 12.796875 0.140625 7.71875 1.703125 
L 7.71875 11.625 
Q 12.109375 9.234375 16.796875 8.0625 
Q 21.484375 6.890625 26.703125 6.890625 
Q 35.15625 6.890625 40.078125 11.328125 
Q 45.015625 15.765625 45.015625 23.390625 
Q 45.015625 31 40.078125 35.4375 
Q 35.15625 39.890625 26.703125 39.890625 
Q 22.75 39.890625 18.8125 39.015625 
Q 14.890625 38.140625 10.796875 36.28125 
z
" id="DejaVuSans-53"/>
      </defs>
      <g transform="translate(44.2375 267.207654)scale(0.1 -0.1)">
       <use xlink:href="#DejaVuSans-53"/>
      </g>
     </g>
    </g>
    <g id="ytick_3">
     <g id="line2d_8">
      <g>
       <use style="stroke:#000000;stroke-width:0.8;" x="57.6" xlink:href="#m4efe108806" y="233.667074"/>
      </g>
     </g>
     <g id="text_9">
      <!-- 10 -->
      <defs>
       <path d="M 12.40625 8.296875 
L 28.515625 8.296875 
L 28.515625 63.921875 
L 10.984375 60.40625 
L 10.984375 69.390625 
L 28.421875 72.90625 
L 38.28125 72.90625 
L 38.28125 8.296875 
L 54.390625 8.296875 
L 54.390625 0 
L 12.40625 0 
z
" id="DejaVuSans-49"/>
      </defs>
      <g transform="translate(37.875 237.466293)scale(0.1 -0.1)">
       <use xlink:href="#DejaVuSans-49"/>
       <use x="63.623047" xlink:href="#DejaVuSans-48"/>
      </g>
     </g>
    </g>
    <g id="ytick_4">
     <g id="line2d_9">
      <g>
       <use style="stroke:#000000;stroke-width:0.8;" x="57.6" xlink:href="#m4efe108806" y="203.925714"/>
      </g>
     </g>
     <g id="text_10">
      <!-- 15 -->
      <g transform="translate(37.875 207.724933)scale(0.1 -0.1)">
       <use xlink:href="#DejaVuSans-49"/>
       <use x="63.623047" xlink:href="#DejaVuSans-53"/>
      </g>
     </g>
    </g>
    <g id="ytick_5">
     <g id="line2d_10">
      <g>
       <use style="stroke:#000000;stroke-width:0.8;" x="57.6" xlink:href="#m4efe108806" y="174.184354"/>
      </g>
     </g>
     <g id="text_11">
      <!-- 20 -->
      <g transform="translate(37.875 177.983573)scale(0.1 -0.1)">
       <use xlink:href="#DejaVuSans-50"/>
       <use x="63.623047" xlink:href="#DejaVuSans-48"/>
      </g>
     </g>
    </g>
    <g id="ytick_6">
     <g id="line2d_11">
      <g>
       <use style="stroke:#000000;stroke-width:0.8;" x="57.6" xlink:href="#m4efe108806" y="144.442994"/>
      </g>
     </g>
     <g id="text_12">
      <!-- 25 -->
      <g transform="translate(37.875 148.242212)scale(0.1 -0.1)">
       <use xlink:href="#DejaVuSans-50"/>
       <use x="63.623047" xlink:href="#DejaVuSans-53"/>
      </g>
     </g>
    </g>
    <g id="ytick_7">
     <g id="line2d_12">
      <g>
       <use style="stroke:#000000;stroke-width:0.8;" x="57.6" xlink:href="#m4efe108806" y="114.701633"/>
      </g>
     </g>
     <g id="text_13">
      <!-- 30 -->
      <defs>
       <path d="M 40.578125 39.3125 
Q 47.65625 37.796875 51.625 33 
Q 55.609375 28.21875 55.609375 21.1875 
Q 55.609375 10.40625 48.1875 4.484375 
Q 40.765625 -1.421875 27.09375 -1.421875 
Q 22.515625 -1.421875 17.65625 -0.515625 
Q 12.796875 0.390625 7.625 2.203125 
L 7.625 11.71875 
Q 11.71875 9.328125 16.59375 8.109375 
Q 21.484375 6.890625 26.8125 6.890625 
Q 36.078125 6.890625 40.9375 10.546875 
Q 45.796875 14.203125 45.796875 21.1875 
Q 45.796875 27.640625 41.28125 31.265625 
Q 36.765625 34.90625 28.71875 34.90625 
L 20.21875 34.90625 
L 20.21875 43.015625 
L 29.109375 43.015625 
Q 36.375 43.015625 40.234375 45.921875 
Q 44.09375 48.828125 44.09375 54.296875 
Q 44.09375 59.90625 40.109375 62.90625 
Q 36.140625 65.921875 28.71875 65.921875 
Q 24.65625 65.921875 20.015625 65.03125 
Q 15.375 64.15625 9.8125 62.3125 
L 9.8125 71.09375 
Q 15.4375 72.65625 20.34375 73.4375 
Q 25.25 74.21875 29.59375 74.21875 
Q 40.828125 74.21875 47.359375 69.109375 
Q 53.90625 64.015625 53.90625 55.328125 
Q 53.90625 49.265625 50.4375 45.09375 
Q 46.96875 40.921875 40.578125 39.3125 
z
" id="DejaVuSans-51"/>
      </defs>
      <g transform="translate(37.875 118.500852)scale(0.1 -0.1)">
       <use xlink:href="#DejaVuSans-51"/>
       <use x="63.623047" xlink:href="#DejaVuSans-48"/>
      </g>
     </g>
    </g>
    <g id="ytick_8">
     <g id="line2d_13">
      <g>
       <use style="stroke:#000000;stroke-width:0.8;" x="57.6" xlink:href="#m4efe108806" y="84.960273"/>
      </g>
     </g>
     <g id="text_14">
      <!-- 35 -->
      <g transform="translate(37.875 88.759492)scale(0.1 -0.1)">
       <use xlink:href="#DejaVuSans-51"/>
       <use x="63.623047" xlink:href="#DejaVuSans-53"/>
      </g>
     </g>
    </g>
    <g id="ytick_9">
     <g id="line2d_14">
      <g>
       <use style="stroke:#000000;stroke-width:0.8;" x="57.6" xlink:href="#m4efe108806" y="55.218913"/>
      </g>
     </g>
     <g id="text_15">
      <!-- 40 -->
      <g transform="translate(37.875 59.018131)scale(0.1 -0.1)">
       <use xlink:href="#DejaVuSans-52"/>
       <use x="63.623047" xlink:href="#DejaVuSans-48"/>
      </g>
     </g>
    </g>
    <g id="text_16">
     <!-- f(x) -->
     <defs>
      <path d="M 37.109375 75.984375 
L 37.109375 68.5 
L 28.515625 68.5 
Q 23.6875 68.5 21.796875 66.546875 
Q 19.921875 64.59375 19.921875 59.515625 
L 19.921875 54.6875 
L 34.71875 54.6875 
L 34.71875 47.703125 
L 19.921875 47.703125 
L 19.921875 0 
L 10.890625 0 
L 10.890625 47.703125 
L 2.296875 47.703125 
L 2.296875 54.6875 
L 10.890625 54.6875 
L 10.890625 58.5 
Q 10.890625 67.625 15.140625 71.796875 
Q 19.390625 75.984375 28.609375 75.984375 
z
" id="DejaVuSans-102"/>
      <path d="M 31 75.875 
Q 24.46875 64.65625 21.28125 53.65625 
Q 18.109375 42.671875 18.109375 31.390625 
Q 18.109375 20.125 21.3125 9.0625 
Q 24.515625 -2 31 -13.1875 
L 23.1875 -13.1875 
Q 15.875 -1.703125 12.234375 9.375 
Q 8.59375 20.453125 8.59375 31.390625 
Q 8.59375 42.28125 12.203125 53.3125 
Q 15.828125 64.359375 23.1875 75.875 
z
" id="DejaVuSans-40"/>
      <path d="M 8.015625 75.875 
L 15.828125 75.875 
Q 23.140625 64.359375 26.78125 53.3125 
Q 30.421875 42.28125 30.421875 31.390625 
Q 30.421875 20.453125 26.78125 9.375 
Q 23.140625 -1.703125 15.828125 -13.1875 
L 8.015625 -13.1875 
Q 14.5 -2 17.703125 9.0625 
Q 20.90625 20.125 20.90625 31.390625 
Q 20.90625 42.671875 17.703125 53.65625 
Q 14.5 64.65625 8.015625 75.875 
z
" id="DejaVuSans-41"/>
     </defs>
     <g transform="translate(31.795313 181.694694)rotate(-90)scale(0.1 -0.1)">
      <use xlink:href="#DejaVuSans-102"/>
      <use x="35.205078" xlink:href="#DejaVuSans-40"/>
      <use x="74.21875" xlink:href="#DejaVuSans-120"/>
      <use x="133.398438" xlink:href="#DejaVuSans-41"/>
     </g>
    </g>
   </g>
   <g id="line2d_15">
    <path clip-path="url(#p7751c99edd)" d="M 73.832727 121.097729 
L 75.133948 132.538173 
L 75.784558 136.982 
L 76.435169 140.499115 
L 77.085779 143.051588 
L 77.736389 144.617418 
L 78.386999 145.190906 
L 79.03761 144.78274 
L 79.68822 143.419825 
L 80.33883 141.144832 
L 80.989441 138.01549 
L 81.640051 134.103632 
L 82.941272 124.282823 
L 84.242492 112.48858 
L 88.146154 74.88914 
L 89.447375 64.896371 
L 90.097985 60.874908 
L 90.748595 57.621165 
L 91.399206 55.207792 
L 92.049816 53.693402 
L 92.700426 53.1216 
L 93.351037 53.520261 
L 94.001647 54.901065 
L 94.652257 57.259301 
L 95.302868 60.57395 
L 95.953478 64.808032 
L 97.254698 75.810699 
L 98.555919 89.681805 
L 100.50775 114.12836 
L 103.760802 156.594049 
L 105.062022 171.302111 
L 106.363243 183.388545 
L 107.013853 188.23237 
L 107.664463 192.186907 
L 108.315074 195.202971 
L 108.965684 197.246874 
L 109.616294 198.300986 
L 110.266905 198.364024 
L 110.917515 197.451079 
L 111.568125 195.593358 
L 112.218736 192.837671 
L 112.869346 189.245656 
L 114.170567 179.866932 
L 115.471787 168.202321 
L 120.67667 117.551687 
L 121.97789 108.712075 
L 122.628501 105.434121 
L 123.279111 103.013762 
L 123.929721 101.505651 
L 124.580332 100.949215 
L 125.230942 101.367996 
L 125.881552 102.769265 
L 126.532163 105.143898 
L 127.182773 108.466527 
L 127.833383 112.695962 
L 129.134604 123.635745 
L 130.435824 137.349441 
L 132.387655 161.336468 
L 135.640707 202.366382 
L 136.941927 216.278498 
L 138.243148 227.468038 
L 138.893758 231.833736 
L 139.544369 235.295404 
L 140.194979 237.807966 
L 140.845589 239.342017 
L 141.4962 239.884317 
L 142.14681 239.438004 
L 142.79742 238.022549 
L 143.448031 235.673427 
L 144.098641 232.441532 
L 144.749251 228.392329 
L 146.050472 218.169982 
L 147.351692 205.774843 
L 151.905965 158.994152 
L 153.207185 148.684166 
L 153.857796 144.578461 
L 154.508406 141.281314 
L 155.159016 138.857945 
L 155.809627 137.358981 
L 156.460237 136.819622 
L 157.110847 137.259053 
L 157.761457 138.680124 
L 158.412068 141.069308 
L 159.062678 144.39692 
L 159.713288 148.617613 
L 161.014509 159.483303 
L 162.31573 173.025006 
L 164.267561 196.52646 
L 166.870002 228.710838 
L 168.171222 242.932895 
L 169.472443 254.713172 
L 170.123053 259.457992 
L 170.773664 263.341197 
L 171.424274 266.306718 
L 172.074884 268.313639 
L 172.725495 269.336876 
L 173.376105 269.367592 
L 174.026715 268.413344 
L 174.677326 266.497959 
L 175.327936 263.661138 
L 175.978546 259.957796 
L 177.279767 250.241568 
L 178.580987 238.052458 
L 180.532818 217.055614 
L 183.13526 189.18361 
L 184.43648 177.506053 
L 185.737701 168.475518 
L 186.388311 165.163922 
L 187.038921 162.741225 
L 187.689532 161.253969 
L 188.340142 160.733083 
L 188.990752 161.19337 
L 189.641363 162.63326 
L 190.291973 165.034835 
L 190.942583 168.364132 
L 191.593194 172.571698 
L 192.894414 183.351584 
L 194.195635 196.706326 
L 196.147466 219.695859 
L 198.749907 250.725327 
L 200.051128 264.177837 
L 201.352348 275.082322 
L 202.002959 279.357127 
L 202.653569 282.753761 
L 203.304179 285.220158 
L 203.95479 286.719614 
L 204.6054 287.231393 
L 205.25601 286.751075 
L 205.906621 285.290625 
L 206.557231 282.878199 
L 207.207841 279.557674 
L 207.858451 275.387919 
L 209.159672 264.805066 
L 210.460893 251.857666 
L 213.063334 222.498153 
L 215.015165 201.366445 
L 216.316385 189.512595 
L 217.617606 180.404624 
L 218.268216 177.083043 
L 218.918827 174.664404 
L 219.569437 173.191106 
L 220.220047 172.68977 
L 220.870658 173.170799 
L 221.521268 174.628204 
L 222.171878 177.039701 
L 222.822489 180.367085 
L 223.473099 184.556861 
L 224.77432 195.238741 
L 226.07554 208.391186 
L 228.677981 238.564415 
L 230.629812 260.680705 
L 231.931033 273.348107 
L 233.232254 283.364291 
L 233.882864 287.164238 
L 234.533474 290.070514 
L 235.184085 292.035118 
L 235.834695 293.0256 
L 236.485305 293.0256 
L 237.135915 292.035118 
L 237.786526 290.070514 
L 238.437136 287.164238 
L 239.087746 283.364291 
L 240.388967 273.348107 
L 241.690188 260.680705 
L 243.642019 238.564415 
L 246.24446 208.391186 
L 247.54568 195.238741 
L 248.846901 184.556861 
L 249.497511 180.367085 
L 250.148122 177.039701 
L 250.798732 174.628204 
L 251.449342 173.170799 
L 252.099953 172.68977 
L 252.750563 173.191106 
L 253.401173 174.664404 
L 254.051784 177.083043 
L 254.702394 180.404624 
L 255.353004 184.571672 
L 256.654225 195.14287 
L 257.955445 208.077335 
L 260.557887 237.428789 
L 262.509718 258.574733 
L 263.810938 270.441819 
L 265.112159 279.557674 
L 265.762769 282.878199 
L 266.413379 285.290625 
L 267.06399 286.751075 
L 267.7146 287.231393 
L 268.36521 286.719614 
L 269.015821 285.220158 
L 269.666431 282.753761 
L 270.317041 279.357127 
L 270.967652 275.082322 
L 272.268872 264.177837 
L 273.570093 250.725327 
L 275.521924 227.665217 
L 278.124365 196.706326 
L 279.425586 183.351584 
L 280.726806 172.571698 
L 281.377417 168.364132 
L 282.028027 165.034835 
L 282.678637 162.63326 
L 283.329248 161.19337 
L 283.979858 160.733083 
L 284.630468 161.253969 
L 285.281079 162.741225 
L 285.931689 165.163922 
L 286.582299 168.475518 
L 287.232909 172.61463 
L 288.53413 183.062011 
L 289.835351 195.762483 
L 295.040233 250.241568 
L 296.341454 259.957796 
L 296.992064 263.661138 
L 297.642674 266.497959 
L 298.293285 268.413344 
L 298.943895 269.367592 
L 299.594505 269.336876 
L 300.245116 268.313639 
L 300.895726 266.306718 
L 301.546336 263.341197 
L 302.196947 259.457992 
L 303.498167 249.177025 
L 304.799388 236.075797 
L 306.751219 212.917625 
L 310.00427 173.025006 
L 311.305491 159.483303 
L 312.606712 148.617613 
L 313.257322 144.39692 
L 313.907932 141.069308 
L 314.558543 138.680124 
L 315.209153 137.259053 
L 315.859763 136.819622 
L 316.510373 137.358981 
L 317.160984 138.857945 
L 317.811594 141.281314 
L 318.462204 144.578461 
L 319.112815 148.684166 
L 320.414035 158.994152 
L 321.715256 171.444308 
L 326.269528 218.169982 
L 327.570749 228.392329 
L 328.221359 232.441532 
L 328.871969 235.673427 
L 329.52258 238.022549 
L 330.17319 239.438004 
L 330.8238 239.884317 
L 331.474411 239.342017 
L 332.125021 237.807966 
L 332.775631 235.295404 
L 333.426242 231.833736 
L 334.076852 227.468038 
L 335.378073 216.278498 
L 336.679293 202.366382 
L 338.631124 178.219196 
L 341.884176 137.349441 
L 343.185396 123.635745 
L 344.486617 112.695962 
L 345.137227 108.466527 
L 345.787837 105.143898 
L 346.438448 102.769265 
L 347.089058 101.367996 
L 347.739668 100.949215 
L 348.390279 101.505651 
L 349.040889 103.013762 
L 349.691499 105.434121 
L 350.34211 108.712075 
L 350.99272 112.778647 
L 352.293941 122.937231 
L 353.595161 135.120456 
L 357.498823 174.267284 
L 358.800044 184.892747 
L 359.450654 189.245656 
L 360.101264 192.837671 
L 360.751875 195.593358 
L 361.402485 197.451079 
L 362.053095 198.364024 
L 362.703706 198.300986 
L 363.354316 197.246874 
L 364.004926 195.202971 
L 364.655537 192.186907 
L 365.306147 188.23237 
L 366.607367 177.719297 
L 367.908588 164.226808 
L 369.860419 140.102851 
L 373.764081 89.681805 
L 375.065302 75.810699 
L 376.366522 64.808032 
L 377.017132 60.57395 
L 377.667743 57.259301 
L 378.318353 54.901065 
L 378.968963 53.520261 
L 379.619574 53.1216 
L 380.270184 53.693402 
L 380.920794 55.207792 
L 381.571405 57.621165 
L 382.222015 60.874908 
L 383.523236 69.600077 
L 384.824456 80.656869 
L 387.426897 106.140325 
L 389.378728 124.282823 
L 390.679949 134.103632 
L 391.330559 138.01549 
L 391.98117 141.144832 
L 392.63178 143.419825 
L 393.28239 144.78274 
L 393.933001 145.190906 
L 394.583611 144.617418 
L 395.234221 143.051588 
L 395.884831 140.499115 
L 396.535442 136.982 
L 397.186052 132.538173 
L 398.487273 121.097729 
L 398.487273 121.097729 
" style="fill:none;stroke:#1f77b4;stroke-linecap:square;stroke-width:1.5;"/>
   </g>
   <g id="patch_3">
    <path d="M 57.6 305.0208 
L 57.6 41.1264 
" style="fill:none;stroke:#000000;stroke-linecap:square;stroke-linejoin:miter;stroke-width:0.8;"/>
   </g>
   <g id="patch_4">
    <path d="M 414.72 305.0208 
L 414.72 41.1264 
" style="fill:none;stroke:#000000;stroke-linecap:square;stroke-linejoin:miter;stroke-width:0.8;"/>
   </g>
   <g id="patch_5">
    <path d="M 57.6 305.0208 
L 414.72 305.0208 
" style="fill:none;stroke:#000000;stroke-linecap:square;stroke-linejoin:miter;stroke-width:0.8;"/>
   </g>
   <g id="patch_6">
    <path d="M 57.6 41.1264 
L 414.72 41.1264 
" style="fill:none;stroke:#000000;stroke-linecap:square;stroke-linejoin:miter;stroke-width:0.8;"/>
   </g>
  </g>
 </g>
 <defs>
  <clipPath id="p7751c99edd">
   <rect height="263.8944" width="357.12" x="57.6" y="41.1264"/>
  </clipPath>
 </defs>
</svg>
