<?xml version="1.0" encoding="utf-8" standalone="no"?>
<!DOCTYPE svg PUBLIC "-//W3C//DTD SVG 1.1//EN"
  "http://www.w3.org/Graphics/SVG/1.1/DTD/svg11.dtd">
<!-- Created with matplotlib (https://matplotlib.org/) -->
<svg height="342.72pt" version="1.1" viewBox="0 0 460.8 342.72" width="460.8pt" xmlns="http://www.w3.org/2000/svg" xmlns:xlink="http://www.w3.org/1999/xlink">
 <defs>
  <style type="text/css">
*{stroke-linecap:butt;stroke-linejoin:round;}
  </style>
 </defs>
 <g id="figure_1">
  <g id="patch_1">
   <path d="M 0 342.72 
L 460.8 342.72 
L 460.8 0 
L 0 0 
z
" style="fill:#ffffff;"/>
  </g>
  <g id="axes_1">
   <g id="patch_2">
    <path d="M 57.6 305.0208 
L 414.72 305.0208 
L 414.72 41.1264 
L 57.6 41.1264 
z
" style="fill:#ffffff;"/>
   </g>
   <g id="matplotlib.axis_1">
    <g id="xtick_1">
     <g id="line2d_1">
      <defs>
       <path d="M 0 0 
L 0 3.5 
" id="m6eaad9e7fe" style="stroke:#000000;stroke-width:0.8;"/>
      </defs>
      <g>
       <use style="stroke:#000000;stroke-width:0.8;" x="73.832727" xlink:href="#m6eaad9e7fe" y="305.0208"/>
      </g>
     </g>
     <g id="text_1">
      <!-- −4 -->
      <defs>
       <path d="M 10.59375 35.5 
L 73.1875 35.5 
L 73.1875 27.203125 
L 10.59375 27.203125 
z
" id="DejaVuSans-8722"/>
       <path d="M 37.796875 64.3125 
L 12.890625 25.390625 
L 37.796875 25.390625 
z
M 35.203125 72.90625 
L 47.609375 72.90625 
L 47.609375 25.390625 
L 58.015625 25.390625 
L 58.015625 17.1875 
L 47.609375 17.1875 
L 47.609375 0 
L 37.796875 0 
L 37.796875 17.1875 
L 4.890625 17.1875 
L 4.890625 26.703125 
z
" id="DejaVuSans-52"/>
      </defs>
      <g transform="translate(66.461634 319.619237)scale(0.1 -0.1)">
       <use xlink:href="#DejaVuSans-8722"/>
       <use x="83.789062" xlink:href="#DejaVuSans-52"/>
      </g>
     </g>
    </g>
    <g id="xtick_2">
     <g id="line2d_2">
      <g>
       <use style="stroke:#000000;stroke-width:0.8;" x="145.0289" xlink:href="#m6eaad9e7fe" y="305.0208"/>
      </g>
     </g>
     <g id="text_2">
      <!-- −2 -->
      <defs>
       <path d="M 19.1875 8.296875 
L 53.609375 8.296875 
L 53.609375 0 
L 7.328125 0 
L 7.328125 8.296875 
Q 12.9375 14.109375 22.625 23.890625 
Q 32.328125 33.6875 34.8125 36.53125 
Q 39.546875 41.84375 41.421875 45.53125 
Q 43.3125 49.21875 43.3125 52.78125 
Q 43.3125 58.59375 39.234375 62.25 
Q 35.15625 65.921875 28.609375 65.921875 
Q 23.96875 65.921875 18.8125 64.3125 
Q 13.671875 62.703125 7.8125 59.421875 
L 7.8125 69.390625 
Q 13.765625 71.78125 18.9375 73 
Q 24.125 74.21875 28.421875 74.21875 
Q 39.75 74.21875 46.484375 68.546875 
Q 53.21875 62.890625 53.21875 53.421875 
Q 53.21875 48.921875 51.53125 44.890625 
Q 49.859375 40.875 45.40625 35.40625 
Q 44.1875 33.984375 37.640625 27.21875 
Q 31.109375 20.453125 19.1875 8.296875 
z
" id="DejaVuSans-50"/>
      </defs>
      <g transform="translate(137.657806 319.619237)scale(0.1 -0.1)">
       <use xlink:href="#DejaVuSans-8722"/>
       <use x="83.789062" xlink:href="#DejaVuSans-50"/>
      </g>
     </g>
    </g>
    <g id="xtick_3">
     <g id="line2d_3">
      <g>
       <use style="stroke:#000000;stroke-width:0.8;" x="216.225072" xlink:href="#m6eaad9e7fe" y="305.0208"/>
      </g>
     </g>
     <g id="text_3">
      <!-- 0 -->
      <defs>
       <path d="M 31.78125 66.40625 
Q 24.171875 66.40625 20.328125 58.90625 
Q 16.5 51.421875 16.5 36.375 
Q 16.5 21.390625 20.328125 13.890625 
Q 24.171875 6.390625 31.78125 6.390625 
Q 39.453125 6.390625 43.28125 13.890625 
Q 47.125 21.390625 47.125 36.375 
Q 47.125 51.421875 43.28125 58.90625 
Q 39.453125 66.40625 31.78125 66.40625 
z
M 31.78125 74.21875 
Q 44.046875 74.21875 50.515625 64.515625 
Q 56.984375 54.828125 56.984375 36.375 
Q 56.984375 17.96875 50.515625 8.265625 
Q 44.046875 -1.421875 31.78125 -1.421875 
Q 19.53125 -1.421875 13.0625 8.265625 
Q 6.59375 17.96875 6.59375 36.375 
Q 6.59375 54.828125 13.0625 64.515625 
Q 19.53125 74.21875 31.78125 74.21875 
z
" id="DejaVuSans-48"/>
      </defs>
      <g transform="translate(213.043822 319.619237)scale(0.1 -0.1)">
       <use xlink:href="#DejaVuSans-48"/>
      </g>
     </g>
    </g>
    <g id="xtick_4">
     <g id="line2d_4">
      <g>
       <use style="stroke:#000000;stroke-width:0.8;" x="287.421244" xlink:href="#m6eaad9e7fe" y="305.0208"/>
      </g>
     </g>
     <g id="text_4">
      <!-- 2 -->
      <g transform="translate(284.239994 319.619237)scale(0.1 -0.1)">
       <use xlink:href="#DejaVuSans-50"/>
      </g>
     </g>
    </g>
    <g id="xtick_5">
     <g id="line2d_5">
      <g>
       <use style="stroke:#000000;stroke-width:0.8;" x="358.617416" xlink:href="#m6eaad9e7fe" y="305.0208"/>
      </g>
     </g>
     <g id="text_5">
      <!-- 4 -->
      <g transform="translate(355.436166 319.619237)scale(0.1 -0.1)">
       <use xlink:href="#DejaVuSans-52"/>
      </g>
     </g>
    </g>
    <g id="text_6">
     <!-- x -->
     <defs>
      <path d="M 54.890625 54.6875 
L 35.109375 28.078125 
L 55.90625 0 
L 45.3125 0 
L 29.390625 21.484375 
L 13.484375 0 
L 2.875 0 
L 24.125 28.609375 
L 4.6875 54.6875 
L 15.28125 54.6875 
L 29.78125 35.203125 
L 44.28125 54.6875 
z
" id="DejaVuSans-120"/>
     </defs>
     <g transform="translate(233.200625 333.297362)scale(0.1 -0.1)">
      <use xlink:href="#DejaVuSans-120"/>
     </g>
    </g>
   </g>
   <g id="matplotlib.axis_2">
    <g id="ytick_1">
     <g id="line2d_6">
      <defs>
       <path d="M 0 0 
L -3.5 0 
" id="m9935a92e30" style="stroke:#000000;stroke-width:0.8;"/>
      </defs>
      <g>
       <use style="stroke:#000000;stroke-width:0.8;" x="57.6" xlink:href="#m9935a92e30" y="293.033362"/>
      </g>
     </g>
     <g id="text_7">
      <!-- 0 -->
      <g transform="translate(44.2375 296.832581)scale(0.1 -0.1)">
       <use xlink:href="#DejaVuSans-48"/>
      </g>
     </g>
    </g>
    <g id="ytick_2">
     <g id="line2d_7">
      <g>
       <use style="stroke:#000000;stroke-width:0.8;" x="57.6" xlink:href="#m9935a92e30" y="263.301571"/>
      </g>
     </g>
     <g id="text_8">
      <!-- 5 -->
      <defs>
       <path d="M 10.796875 72.90625 
L 49.515625 72.90625 
L 49.515625 64.59375 
L 19.828125 64.59375 
L 19.828125 46.734375 
Q 21.96875 47.46875 24.109375 47.828125 
Q 26.265625 48.1875 28.421875 48.1875 
Q 40.625 48.1875 47.75 41.5 
Q 54.890625 34.8125 54.890625 23.390625 
Q 54.890625 11.625 47.5625 5.09375 
Q 40.234375 -1.421875 26.90625 -1.421875 
Q 22.3125 -1.421875 17.546875 -0.640625 
Q 12.796875 0.140625 7.71875 1.703125 
L 7.71875 11.625 
Q 12.109375 9.234375 16.796875 8.0625 
Q 21.484375 6.890625 26.703125 6.890625 
Q 35.15625 6.890625 40.078125 11.328125 
Q 45.015625 15.765625 45.015625 23.390625 
Q 45.015625 31 40.078125 35.4375 
Q 35.15625 39.890625 26.703125 39.890625 
Q 22.75 39.890625 18.8125 39.015625 
Q 14.890625 38.140625 10.796875 36.28125 
z
" id="DejaVuSans-53"/>
      </defs>
      <g transform="translate(44.2375 267.10079)scale(0.1 -0.1)">
       <use xlink:href="#DejaVuSans-53"/>
      </g>
     </g>
    </g>
    <g id="ytick_3">
     <g id="line2d_8">
      <g>
       <use style="stroke:#000000;stroke-width:0.8;" x="57.6" xlink:href="#m9935a92e30" y="233.56978"/>
      </g>
     </g>
     <g id="text_9">
      <!-- 10 -->
      <defs>
       <path d="M 12.40625 8.296875 
L 28.515625 8.296875 
L 28.515625 63.921875 
L 10.984375 60.40625 
L 10.984375 69.390625 
L 28.421875 72.90625 
L 38.28125 72.90625 
L 38.28125 8.296875 
L 54.390625 8.296875 
L 54.390625 0 
L 12.40625 0 
z
" id="DejaVuSans-49"/>
      </defs>
      <g transform="translate(37.875 237.368999)scale(0.1 -0.1)">
       <use xlink:href="#DejaVuSans-49"/>
       <use x="63.623047" xlink:href="#DejaVuSans-48"/>
      </g>
     </g>
    </g>
    <g id="ytick_4">
     <g id="line2d_9">
      <g>
       <use style="stroke:#000000;stroke-width:0.8;" x="57.6" xlink:href="#m9935a92e30" y="203.837989"/>
      </g>
     </g>
     <g id="text_10">
      <!-- 15 -->
      <g transform="translate(37.875 207.637208)scale(0.1 -0.1)">
       <use xlink:href="#DejaVuSans-49"/>
       <use x="63.623047" xlink:href="#DejaVuSans-53"/>
      </g>
     </g>
    </g>
    <g id="ytick_5">
     <g id="line2d_10">
      <g>
       <use style="stroke:#000000;stroke-width:0.8;" x="57.6" xlink:href="#m9935a92e30" y="174.106198"/>
      </g>
     </g>
     <g id="text_11">
      <!-- 20 -->
      <g transform="translate(37.875 177.905417)scale(0.1 -0.1)">
       <use xlink:href="#DejaVuSans-50"/>
       <use x="63.623047" xlink:href="#DejaVuSans-48"/>
      </g>
     </g>
    </g>
    <g id="ytick_6">
     <g id="line2d_11">
      <g>
       <use style="stroke:#000000;stroke-width:0.8;" x="57.6" xlink:href="#m9935a92e30" y="144.374407"/>
      </g>
     </g>
     <g id="text_12">
      <!-- 25 -->
      <g transform="translate(37.875 148.173626)scale(0.1 -0.1)">
       <use xlink:href="#DejaVuSans-50"/>
       <use x="63.623047" xlink:href="#DejaVuSans-53"/>
      </g>
     </g>
    </g>
    <g id="ytick_7">
     <g id="line2d_12">
      <g>
       <use style="stroke:#000000;stroke-width:0.8;" x="57.6" xlink:href="#m9935a92e30" y="114.642616"/>
      </g>
     </g>
     <g id="text_13">
      <!-- 30 -->
      <defs>
       <path d="M 40.578125 39.3125 
Q 47.65625 37.796875 51.625 33 
Q 55.609375 28.21875 55.609375 21.1875 
Q 55.609375 10.40625 48.1875 4.484375 
Q 40.765625 -1.421875 27.09375 -1.421875 
Q 22.515625 -1.421875 17.65625 -0.515625 
Q 12.796875 0.390625 7.625 2.203125 
L 7.625 11.71875 
Q 11.71875 9.328125 16.59375 8.109375 
Q 21.484375 6.890625 26.8125 6.890625 
Q 36.078125 6.890625 40.9375 10.546875 
Q 45.796875 14.203125 45.796875 21.1875 
Q 45.796875 27.640625 41.28125 31.265625 
Q 36.765625 34.90625 28.71875 34.90625 
L 20.21875 34.90625 
L 20.21875 43.015625 
L 29.109375 43.015625 
Q 36.375 43.015625 40.234375 45.921875 
Q 44.09375 48.828125 44.09375 54.296875 
Q 44.09375 59.90625 40.109375 62.90625 
Q 36.140625 65.921875 28.71875 65.921875 
Q 24.65625 65.921875 20.015625 65.03125 
Q 15.375 64.15625 9.8125 62.3125 
L 9.8125 71.09375 
Q 15.4375 72.65625 20.34375 73.4375 
Q 25.25 74.21875 29.59375 74.21875 
Q 40.828125 74.21875 47.359375 69.109375 
Q 53.90625 64.015625 53.90625 55.328125 
Q 53.90625 49.265625 50.4375 45.09375 
Q 46.96875 40.921875 40.578125 39.3125 
z
" id="DejaVuSans-51"/>
      </defs>
      <g transform="translate(37.875 118.441835)scale(0.1 -0.1)">
       <use xlink:href="#DejaVuSans-51"/>
       <use x="63.623047" xlink:href="#DejaVuSans-48"/>
      </g>
     </g>
    </g>
    <g id="ytick_8">
     <g id="line2d_13">
      <g>
       <use style="stroke:#000000;stroke-width:0.8;" x="57.6" xlink:href="#m9935a92e30" y="84.910825"/>
      </g>
     </g>
     <g id="text_14">
      <!-- 35 -->
      <g transform="translate(37.875 88.710043)scale(0.1 -0.1)">
       <use xlink:href="#DejaVuSans-51"/>
       <use x="63.623047" xlink:href="#DejaVuSans-53"/>
      </g>
     </g>
    </g>
    <g id="ytick_9">
     <g id="line2d_14">
      <g>
       <use style="stroke:#000000;stroke-width:0.8;" x="57.6" xlink:href="#m9935a92e30" y="55.179034"/>
      </g>
     </g>
     <g id="text_15">
      <!-- 40 -->
      <g transform="translate(37.875 58.978252)scale(0.1 -0.1)">
       <use xlink:href="#DejaVuSans-52"/>
       <use x="63.623047" xlink:href="#DejaVuSans-48"/>
      </g>
     </g>
    </g>
    <g id="text_16">
     <!-- f(x)w -->
     <defs>
      <path d="M 37.109375 75.984375 
L 37.109375 68.5 
L 28.515625 68.5 
Q 23.6875 68.5 21.796875 66.546875 
Q 19.921875 64.59375 19.921875 59.515625 
L 19.921875 54.6875 
L 34.71875 54.6875 
L 34.71875 47.703125 
L 19.921875 47.703125 
L 19.921875 0 
L 10.890625 0 
L 10.890625 47.703125 
L 2.296875 47.703125 
L 2.296875 54.6875 
L 10.890625 54.6875 
L 10.890625 58.5 
Q 10.890625 67.625 15.140625 71.796875 
Q 19.390625 75.984375 28.609375 75.984375 
z
" id="DejaVuSans-102"/>
      <path d="M 31 75.875 
Q 24.46875 64.65625 21.28125 53.65625 
Q 18.109375 42.671875 18.109375 31.390625 
Q 18.109375 20.125 21.3125 9.0625 
Q 24.515625 -2 31 -13.1875 
L 23.1875 -13.1875 
Q 15.875 -1.703125 12.234375 9.375 
Q 8.59375 20.453125 8.59375 31.390625 
Q 8.59375 42.28125 12.203125 53.3125 
Q 15.828125 64.359375 23.1875 75.875 
z
" id="DejaVuSans-40"/>
      <path d="M 8.015625 75.875 
L 15.828125 75.875 
Q 23.140625 64.359375 26.78125 53.3125 
Q 30.421875 42.28125 30.421875 31.390625 
Q 30.421875 20.453125 26.78125 9.375 
Q 23.140625 -1.703125 15.828125 -13.1875 
L 8.015625 -13.1875 
Q 14.5 -2 17.703125 9.0625 
Q 20.90625 20.125 20.90625 31.390625 
Q 20.90625 42.671875 17.703125 53.65625 
Q 14.5 64.65625 8.015625 75.875 
z
" id="DejaVuSans-41"/>
      <path d="M 4.203125 54.6875 
L 13.1875 54.6875 
L 24.421875 12.015625 
L 35.59375 54.6875 
L 46.1875 54.6875 
L 57.421875 12.015625 
L 68.609375 54.6875 
L 77.59375 54.6875 
L 63.28125 0 
L 52.6875 0 
L 40.921875 44.828125 
L 29.109375 0 
L 18.5 0 
z
" id="DejaVuSans-119"/>
     </defs>
     <g transform="translate(31.795313 185.783756)rotate(-90)scale(0.1 -0.1)">
      <use xlink:href="#DejaVuSans-102"/>
      <use x="35.205078" xlink:href="#DejaVuSans-40"/>
      <use x="74.21875" xlink:href="#DejaVuSans-120"/>
      <use x="133.398438" xlink:href="#DejaVuSans-41"/>
      <use x="172.412109" xlink:href="#DejaVuSans-119"/>
     </g>
    </g>
   </g>
   <g id="line2d_15">
    <path clip-path="url(#paf4fb4eec7)" d="M 73.832727 197.891631 
L 74.483338 198.367431 
L 75.133948 198.061129 
L 75.784558 196.988134 
L 76.435169 195.1739 
L 77.085779 192.653596 
L 77.736389 189.471639 
L 79.03761 181.343043 
L 80.33883 171.303401 
L 82.290661 154.024979 
L 84.893103 130.500902 
L 86.194323 120.11341 
L 87.495544 111.501733 
L 88.146154 108.033571 
L 88.796764 105.201104 
L 89.447375 103.05192 
L 90.097985 101.624552 
L 90.748595 100.947972 
L 91.399206 101.041211 
L 92.049816 101.913106 
L 92.700426 103.562187 
L 93.351037 105.976692 
L 94.001647 109.134724 
L 94.652257 113.004541 
L 95.953478 122.705959 
L 97.254698 134.649007 
L 99.206529 155.537021 
L 103.760802 206.308373 
L 105.062022 218.228078 
L 106.363243 227.892382 
L 107.013853 231.737031 
L 107.664463 234.864619 
L 108.315074 237.242706 
L 108.965684 238.848671 
L 109.616294 239.670012 
L 110.266905 239.704511 
L 110.917515 238.960263 
L 111.568125 237.455566 
L 112.218736 235.218685 
L 112.869346 232.287478 
L 114.170567 224.538361 
L 115.471787 214.681041 
L 117.423618 197.239462 
L 120.67667 166.802153 
L 121.97789 156.196469 
L 123.279111 147.44936 
L 123.929721 143.939715 
L 124.580332 141.080222 
L 125.230942 138.915943 
L 125.881552 137.482732 
L 126.532163 136.806762 
L 127.182773 136.904177 
L 127.833383 137.780882 
L 128.483993 139.432463 
L 129.134604 141.844248 
L 129.785214 144.991499 
L 131.086435 153.345196 
L 132.387655 164.109862 
L 133.688876 176.774357 
L 136.291317 205.287352 
L 138.893758 233.384484 
L 140.194979 245.546479 
L 141.4962 255.63909 
L 142.79742 263.180628 
L 143.448031 265.880069 
L 144.098641 267.822543 
L 144.749251 268.98829 
L 145.399862 269.36773 
L 146.050472 268.961586 
L 146.701082 267.78088 
L 147.351692 265.846781 
L 148.002303 263.190334 
L 148.652913 259.852042 
L 149.954134 251.335947 
L 151.255354 240.788651 
L 153.207185 222.484272 
L 156.460237 191.112076 
L 157.761457 180.300808 
L 159.062678 171.428865 
L 159.713288 167.882106 
L 160.363899 164.999252 
L 161.014509 162.822795 
L 161.665119 161.385872 
L 162.31573 160.711825 
L 162.96634 160.813897 
L 163.61695 161.695051 
L 164.267561 163.347938 
L 164.918171 165.754991 
L 165.568781 168.888656 
L 166.870002 177.177972 
L 168.171222 187.812628 
L 169.472443 200.265362 
L 172.074884 228.067187 
L 174.677326 255.05 
L 175.978546 266.516131 
L 177.279767 275.836969 
L 177.930377 279.542788 
L 178.580987 282.548406 
L 179.231598 284.817285 
L 179.882208 286.322539 
L 180.532818 287.047289 
L 181.183429 286.984886 
L 181.834039 286.138997 
L 182.484649 284.523555 
L 183.13526 282.16258 
L 183.78587 279.089861 
L 185.087091 270.990386 
L 186.388311 260.670877 
L 188.340142 242.281823 
L 192.243804 203.432566 
L 193.545025 192.428074 
L 194.846245 183.441563 
L 195.496856 179.861862 
L 196.147466 176.959104 
L 196.798076 174.773165 
L 197.448686 173.334428 
L 198.099297 172.663383 
L 198.749907 172.770352 
L 199.400517 173.655358 
L 200.051128 175.308122 
L 200.701738 177.708201 
L 201.352348 180.825254 
L 202.653569 189.041961 
L 203.95479 199.535848 
L 205.906621 218.332954 
L 210.460893 264.666844 
L 211.762113 275.425358 
L 213.063334 283.964952 
L 213.713944 287.258062 
L 214.364555 289.839597 
L 215.015165 291.675727 
L 215.665775 292.742387 
L 216.316385 293.0256 
L 216.966996 292.521653 
L 217.617606 291.23715 
L 218.268216 289.188927 
L 218.918827 286.403826 
L 219.569437 282.918342 
L 220.870658 274.03748 
L 222.171878 263.010175 
L 224.123709 243.727278 
L 228.027371 203.765491 
L 229.328592 192.579873 
L 230.629812 183.488712 
L 231.280423 179.880044 
L 231.931033 176.960626 
L 232.581643 174.767677 
L 233.232254 173.328794 
L 233.882864 172.661589 
L 234.533474 172.773457 
L 235.184085 173.661479 
L 235.834695 175.312457 
L 236.485305 177.703094 
L 237.135915 180.800295 
L 238.437136 188.935772 
L 239.738357 199.277812 
L 241.690188 217.683197 
L 245.59385 256.521679 
L 246.89507 267.507523 
L 248.196291 276.463368 
L 248.846901 280.021905 
L 249.497511 282.898797 
L 250.148122 285.053496 
L 250.798732 286.454918 
L 251.449342 287.081848 
L 252.099953 286.923221 
L 252.750563 285.978267 
L 253.401173 284.256522 
L 254.051784 281.777701 
L 254.702394 278.571442 
L 256.003615 270.142284 
L 257.304835 259.386628 
L 259.256666 240.09618 
L 263.810938 192.112684 
L 265.112159 180.757765 
L 266.413379 171.571518 
L 267.06399 167.937653 
L 267.7146 165.004604 
L 268.36521 162.806889 
L 269.015821 161.369292 
L 269.666431 160.70653 
L 270.317041 160.82306 
L 270.967652 161.713024 
L 271.618262 163.360321 
L 272.268872 165.738822 
L 272.919483 168.812717 
L 274.220703 176.857964 
L 275.521924 187.036775 
L 277.473755 205.030232 
L 281.377417 242.370169 
L 282.678637 252.666222 
L 283.979858 260.855241 
L 284.630468 264.006754 
L 285.281079 266.464127 
L 285.931689 268.189462 
L 286.582299 269.154451 
L 287.232909 269.340751 
L 287.88352 268.740221 
L 288.53413 267.355036 
L 289.18474 265.197652 
L 289.835351 262.290645 
L 290.485961 258.666414 
L 291.787182 249.442299 
L 293.088402 237.961687 
L 295.040233 217.746934 
L 299.594505 168.475947 
L 300.895726 156.963266 
L 302.196947 147.691127 
L 302.847557 144.03563 
L 303.498167 141.091758 
L 304.148778 138.891294 
L 304.799388 137.456181 
L 305.449998 136.798224 
L 306.100608 136.918939 
L 306.751219 137.809535 
L 307.401829 139.451024 
L 308.052439 141.814478 
L 308.70305 144.861403 
L 310.00427 152.807047 
L 311.305491 162.810953 
L 313.257322 180.372016 
L 316.510373 210.729696 
L 317.811594 221.2076 
L 319.112815 229.775708 
L 319.763425 233.177814 
L 320.414035 235.918481 
L 321.064646 237.953253 
L 321.715256 239.246921 
L 322.365866 239.773984 
L 323.016477 239.518991 
L 323.667087 238.476735 
L 324.317697 236.652332 
L 324.968308 234.061146 
L 325.618918 230.728589 
L 326.920138 221.989116 
L 328.221359 210.822309 
L 329.52258 197.743206 
L 332.125021 168.373942 
L 334.727462 139.389605 
L 336.028683 126.769599 
L 337.329903 116.205502 
L 338.631124 108.174855 
L 339.281734 105.222745 
L 339.932345 103.021318 
L 340.582955 101.589649 
L 341.233565 100.93662 
L 341.884176 101.060805 
L 342.534786 101.950489 
L 343.185396 103.583817 
L 343.836007 105.92909 
L 344.486617 108.945178 
L 345.787837 116.781486 
L 347.089058 126.598529 
L 349.040889 143.706493 
L 352.293941 172.805642 
L 353.595161 182.612199 
L 354.896382 190.428699 
L 355.546992 193.429927 
L 356.197602 195.756131 
L 356.848213 197.365437 
L 357.498823 198.225362 
L 358.149433 198.313243 
L 358.800044 197.616533 
L 359.450654 196.132968 
L 360.101264 193.870597 
L 360.751875 190.847676 
L 361.402485 187.092426 
L 362.703706 177.545299 
L 364.004926 165.637077 
L 365.956757 144.536234 
L 370.511029 91.888287 
L 371.81225 79.093012 
L 373.113471 68.429018 
L 374.414691 60.356144 
L 375.065302 57.398158 
L 375.715912 55.197319 
L 376.366522 53.769816 
L 377.017132 53.1216 
L 377.667743 53.248302 
L 378.318353 54.135295 
L 378.968963 55.757883 
L 379.619574 58.08163 
L 380.270184 61.06281 
L 381.571405 68.779697 
L 382.872625 78.397653 
L 384.824456 95.031595 
L 387.426897 117.680499 
L 388.728118 127.621939 
L 390.029339 135.778397 
L 390.679949 139.014251 
L 391.330559 141.610473 
L 391.98117 143.518807 
L 392.63178 144.700005 
L 393.28239 145.124344 
L 393.933001 144.772022 
L 394.583611 143.633411 
L 395.234221 141.709191 
L 395.884831 139.010338 
L 396.535442 135.557978 
L 397.836662 126.526205 
L 398.487273 121.036653 
L 398.487273 121.036653 
" style="fill:none;stroke:#1f77b4;stroke-linecap:square;stroke-width:1.5;"/>
   </g>
   <g id="patch_3">
    <path d="M 57.6 305.0208 
L 57.6 41.1264 
" style="fill:none;stroke:#000000;stroke-linecap:square;stroke-linejoin:miter;stroke-width:0.8;"/>
   </g>
   <g id="patch_4">
    <path d="M 414.72 305.0208 
L 414.72 41.1264 
" style="fill:none;stroke:#000000;stroke-linecap:square;stroke-linejoin:miter;stroke-width:0.8;"/>
   </g>
   <g id="patch_5">
    <path d="M 57.6 305.0208 
L 414.72 305.0208 
" style="fill:none;stroke:#000000;stroke-linecap:square;stroke-linejoin:miter;stroke-width:0.8;"/>
   </g>
   <g id="patch_6">
    <path d="M 57.6 41.1264 
L 414.72 41.1264 
" style="fill:none;stroke:#000000;stroke-linecap:square;stroke-linejoin:miter;stroke-width:0.8;"/>
   </g>
  </g>
 </g>
 <defs>
  <clipPath id="paf4fb4eec7">
   <rect height="263.8944" width="357.12" x="57.6" y="41.1264"/>
  </clipPath>
 </defs>
</svg>
